<?xml version="1.0" encoding="UTF-8" standalone="no"?>
<!-- Created with Inkscape (http://www.inkscape.org/) -->

<svg
   xmlns:ns1="http://www.iki.fi/pav/software/textext/"
   xmlns:dc="http://purl.org/dc/elements/1.1/"
   xmlns:cc="http://creativecommons.org/ns#"
   xmlns:rdf="http://www.w3.org/1999/02/22-rdf-syntax-ns#"
   xmlns:svg="http://www.w3.org/2000/svg"
   xmlns="http://www.w3.org/2000/svg"
   xmlns:sodipodi="http://sodipodi.sourceforge.net/DTD/sodipodi-0.dtd"
   xmlns:inkscape="http://www.inkscape.org/namespaces/inkscape"
   width="297mm"
   height="210mm"
   viewBox="0 0 297 210"
   version="1.1"
   id="svg1199"
   inkscape:version="0.92.4 (5da689c313, 2019-01-14)"
   sodipodi:docname="MCE-MWC.svg">
  <defs
     id="defs1193" />
  <sodipodi:namedview
     id="base"
     pagecolor="#ffffff"
     bordercolor="#666666"
     borderopacity="1.0"
     inkscape:pageopacity="0.0"
     inkscape:pageshadow="2"
     inkscape:zoom="0.46000001"
     inkscape:cx="1071.9926"
     inkscape:cy="366.8932"
     inkscape:document-units="mm"
     inkscape:current-layer="layer1"
     showgrid="false"
     inkscape:window-width="1920"
     inkscape:window-height="1017"
     inkscape:window-x="1920"
     inkscape:window-y="35"
     inkscape:window-maximized="1" />
  <metadata
     id="metadata1196">
    <rdf:RDF>
      <cc:Work
         rdf:about="">
        <dc:format>image/svg+xml</dc:format>
        <dc:type
           rdf:resource="http://purl.org/dc/dcmitype/StillImage" />
        <dc:title></dc:title>
      </cc:Work>
    </rdf:RDF>
  </metadata>
  <g
     inkscape:label="Layer 1"
     inkscape:groupmode="layer"
     id="layer1"
     transform="translate(0,-87)">
    <g
       id="g941"
       transform="translate(-15.455151,-22.572654)">
      <path
         transform="matrix(0.17713898,0.98418585,-0.98540574,0.17022197,0,0)"
         style="fill:#000000;fill-opacity:1;stroke:#000000;stroke-width:0.13921678;stroke-linecap:round;stroke-miterlimit:4;stroke-dasharray:none;stroke-dashoffset:0"
         id="path1146"
         sodipodi:type="arc"
         sodipodi:cx="259.52692"
         sodipodi:cy="-154.76299"
         sodipodi:rx="1"
         sodipodi:ry="1"
         sodipodi:start="6.1855167"
         sodipodi:end="6.1842775"
         sodipodi:open="true"
         d="m 260.52215,-154.8605 a 1,1 0 0 1 -0.89741,1.09272 1,1 0 0 1 -1.093,-0.89708 1,1 0 0 1 0.89674,-1.09327 1,1 0 0 1 1.09355,0.8964" />
      <ellipse
         id="ellipse1050-3"
         style="opacity:1;fill:none;fill-opacity:1;stroke:#000000;stroke-width:1;stroke-linecap:butt;stroke-linejoin:miter;stroke-miterlimit:4;stroke-dasharray:none;stroke-dashoffset:0;stroke-opacity:1;paint-order:stroke markers fill"
         cx="198.47667"
         cy="229.07867"
         rx="30.000002"
         ry="20" />
    </g>
    <g
       id="g966"
       transform="translate(38.629185,-6.3500003)">
      <ellipse
         id="ellipse1050"
         style="opacity:1;fill:none;fill-opacity:1;stroke:#000000;stroke-width:1;stroke-linecap:butt;stroke-linejoin:miter;stroke-miterlimit:4;stroke-dasharray:1, 1;stroke-dashoffset:0;stroke-opacity:1;paint-order:stroke markers fill"
         cx="169.75668"
         cy="217.05215"
         rx="30"
         ry="20" />
      <rect
         y="216.55215"
         x="169.25668"
         height="1"
         width="1"
         id="rect960"
         style="opacity:1;fill:#000000;fill-opacity:1;stroke:#000000;stroke-width:1;stroke-linecap:butt;stroke-linejoin:miter;stroke-miterlimit:4;stroke-dasharray:none;stroke-dashoffset:0;stroke-opacity:1;paint-order:stroke markers fill" />
    </g>
    <g
       id="g1095"
       ns1:jacobian_sqrt="0.352778"
       inkscapeversion="0.92.4"
       ns1:alignment="middle center"
       ns1:scale="1.0"
       ns1:preamble="/home/danft/.config/inkscape/extensions/textext/default_packages.tex"
       ns1:text="\\fontsize{14pt}{1em}{\\selectfont $p$}\n"
       ns1:pdfconverter="pdf2svg"
       ns1:texconverter="pdflatex"
       ns1:version="0.11.0"
       transform="matrix(0.352778,0,0,0.352778,153.95421,158.98444)">
      <g
         id="g1093">
        <g
           id="g1091"
           style="fill:#000000;fill-opacity:1">
          <path
             id="path1089"
             transform="translate(148.712,134.765)"
             d="M 0.609375,1.828125 C 0.515625,2.25 0.453125,2.359375 -0.125,2.359375 c -0.171875,0 -0.3125,0 -0.3125,0.28125 0,0.03125 0,0.140625 0.171875,0.140625 0.171875,0 0.375,-0.03125 0.5625,-0.03125 h 0.625 c 0.296875,0 1.03125,0.03125 1.328125,0.03125 0.09375,0 0.265625,0 0.265625,-0.25 0,-0.171875 -0.109375,-0.171875 -0.34375,-0.171875 C 1.5,2.359375 1.46875,2.265625 1.46875,2.15625 c 0,-0.171875 0.640625,-2.640625 0.71875,-2.96875 0.171875,0.390625 0.546875,0.953125 1.296875,0.953125 1.625,0 3.375,-2.109375 3.375,-4.21875 0,-1.3125 -0.75,-2.25 -1.828125,-2.25 -0.921875,0 -1.6875,0.890625 -1.84375,1.09375 -0.125,-0.71875 -0.671875,-1.09375 -1.25,-1.09375 -0.421875,0 -0.75,0.203125 -1.015625,0.75 C 0.65625,-5.0625 0.453125,-4.1875 0.453125,-4.125 c 0,0.046875 0.0625,0.125 0.15625,0.125 0.125,0 0.140625,-0.015625 0.21875,-0.34375 0.21875,-0.84375 0.484375,-1.6875 1.0625,-1.6875 0.328125,0 0.453125,0.21875 0.453125,0.65625 0,0.34375 -0.046875,0.484375 -0.109375,0.734375 z M 3.09375,-4.46875 C 3.203125,-4.875 3.59375,-5.296875 3.828125,-5.5 3.984375,-5.640625 4.453125,-6.03125 5,-6.03125 c 0.640625,0 0.921875,0.625 0.921875,1.375 0,0.6875 -0.40625,2.296875 -0.765625,3.046875 -0.34375,0.78125 -1.015625,1.46875 -1.671875,1.46875 -0.96875,0 -1.125,-1.234375 -1.125,-1.296875 0,-0.046875 0.015625,-0.15625 0.03125,-0.21875 z m 0,0"
             style="stroke:none;stroke-width:0"
             inkscape:connector-curvature="0" />
        </g>
      </g>
    </g>
    <g
       id="g1164"
       ns1:jacobian_sqrt="0.352778"
       inkscapeversion="0.92.4"
       ns1:alignment="middle center"
       ns1:scale="1.0"
       ns1:preamble="/home/danft/.config/inkscape/extensions/textext/default_packages.tex"
       ns1:text="\\fontsize{14pt}{1em}{\\selectfont $q$}\n"
       ns1:pdfconverter="pdf2svg"
       ns1:texconverter="pdflatex"
       ns1:version="0.11.0"
       transform="matrix(0.352778,0,0,0.352778,133.86684,156.71177)">
      <g
         id="surface1">
        <g
           id="g1161"
           style="fill:#000000;fill-opacity:1">
          <path
             id="path1159"
             transform="translate(148.712,134.765)"
             d="m 6.328125,-6.1875 c 0,-0.0625 -0.0625,-0.125 -0.125,-0.125 -0.125,0 -0.6875,0.515625 -0.953125,1.015625 -0.265625,-0.640625 -0.703125,-1.03125 -1.3125,-1.03125 -1.625,0 -3.375,2.09375 -3.375,4.21875 0,1.421875 0.828125,2.25 1.796875,2.25 0.765625,0 1.40625,-0.578125 1.703125,-0.90625 L 4.078125,-0.75 3.53125,1.40625 3.40625,1.921875 c -0.140625,0.4375 -0.34375,0.4375 -1.03125,0.4375 -0.15625,0 -0.296875,0 -0.296875,0.28125 0,0.09375 0.09375,0.140625 0.1875,0.140625 C 2.46875,2.78125 2.71875,2.75 2.921875,2.75 h 1.46875 c 0.21875,0 0.453125,0.03125 0.671875,0.03125 0.09375,0 0.265625,0 0.265625,-0.265625 0,-0.15625 -0.125,-0.15625 -0.34375,-0.15625 -0.671875,0 -0.703125,-0.09375 -0.703125,-0.203125 0,-0.078125 0,-0.09375 0.046875,-0.28125 z m -2.03125,4.484375 c -0.0625,0.234375 -0.0625,0.265625 -0.265625,0.546875 -0.3125,0.390625 -0.953125,1.015625 -1.625,1.015625 -0.578125,0 -0.921875,-0.53125 -0.921875,-1.375 0,-0.796875 0.453125,-2.40625 0.71875,-3 0.5,-1 1.171875,-1.515625 1.734375,-1.515625 0.9375,0 1.125,1.171875 1.125,1.28125 0,0.015625 -0.046875,0.203125 -0.0625,0.234375 z m 0,0"
             style="stroke:none;stroke-width:0"
             inkscape:connector-curvature="0" />
        </g>
      </g>
    </g>
    <g
       id="g1608"
       ns1:jacobian_sqrt="0.352778"
       inkscapeversion="0.92.4"
       ns1:alignment="middle center"
       ns1:scale="1.0"
       ns1:preamble="/home/danft/.config/inkscape/extensions/textext/default_packages.tex"
       ns1:text="\\fontsize{11pt}{1em}{\\selectfont $\\partial E(q)$}"
       ns1:pdfconverter="pdf2svg"
       ns1:texconverter="pdflatex"
       ns1:version="0.11.0"
       transform="matrix(0.352778,0,0,0.352778,93.914437,144.64322)">
      <g
         id="g1606">
        <g
           id="g1588"
           style="fill:#000000;fill-opacity:1">
          <path
             id="path1586"
             transform="translate(148.712,134.765)"
             d="M 5.046875,-3.703125 C 4.9375,-4.375 4.5,-4.984375 3.640625,-4.984375 c -0.65625,0 -1.375,0.171875 -2.21875,1.03125 -0.90625,0.90625 -0.984375,1.90625 -0.984375,2.25 0,0.671875 0.484375,1.9375 2,1.9375 2.59375,0 3.734375,-3.65625 3.734375,-5.21875 0,-1.734375 -1.015625,-2.828125 -2.359375,-2.828125 -1.578125,0 -2.078125,1.421875 -2.078125,1.734375 0,0.140625 0.09375,0.375 0.421875,0.375 0.359375,0 0.578125,-0.328125 0.578125,-0.578125 0,-0.375 -0.328125,-0.375 -0.515625,-0.375 0.484375,-0.8125 1.265625,-0.875 1.578125,-0.875 0.796875,0 1.5625,0.5625 1.5625,1.96875 0,0.421875 -0.0625,0.984375 -0.296875,1.859375 z M 2.46875,-0.0625 c -1.1875,0 -1.1875,-1.125 -1.1875,-1.234375 C 1.28125,-1.59375 1.546875,-3.125 2,-3.78125 2.4375,-4.390625 2.96875,-4.75 3.640625,-4.75 c 1.1875,0 1.21875,1.234375 1.21875,1.453125 0,0.78125 -0.703125,3.234375 -2.390625,3.234375 z m 0,0"
             style="stroke:none;stroke-width:0"
             inkscape:connector-curvature="0" />
        </g>
        <g
           id="g1592"
           style="fill:#000000;fill-opacity:1">
          <path
             id="path1590"
             transform="translate(155.11455,134.765)"
             d="m 7.71875,-2.546875 c 0.03125,-0.046875 0.0625,-0.125 0.0625,-0.140625 0,-0.015625 0,-0.125 -0.140625,-0.125 -0.09375,0 -0.109375,0.0625 -0.140625,0.125 -0.703125,1.625 -1.109375,2.34375 -2.96875,2.34375 H 2.9375 c -0.15625,0 -0.171875,0 -0.25,0 C 2.578125,-0.359375 2.546875,-0.375 2.546875,-0.453125 c 0,-0.03125 0,-0.0625 0.0625,-0.25 L 3.34375,-3.6875 h 1.078125 c 0.9375,0 0.9375,0.234375 0.9375,0.5 0,0.078125 0,0.203125 -0.078125,0.53125 C 5.25,-2.59375 5.25,-2.5625 5.25,-2.53125 c 0,0.0625 0.046875,0.125 0.140625,0.125 0.078125,0 0.109375,-0.0625 0.15625,-0.21875 l 0.625,-2.5625 c 0,-0.0625 -0.046875,-0.109375 -0.125,-0.109375 -0.109375,0 -0.125,0.0625 -0.15625,0.1875 C 5.65625,-4.28125 5.46875,-4.03125 4.453125,-4.03125 H 3.4375 l 0.65625,-2.625 c 0.09375,-0.375 0.109375,-0.421875 0.578125,-0.421875 H 6.21875 c 1.328125,0 1.65625,0.3125 1.65625,1.203125 0,0.265625 0,0.296875 -0.046875,0.578125 0,0.078125 -0.015625,0.15625 -0.015625,0.203125 0,0.0625 0.046875,0.125 0.140625,0.125 0.125,0 0.125,-0.0625 0.15625,-0.265625 L 8.328125,-7.125 C 8.359375,-7.421875 8.296875,-7.421875 8.03125,-7.421875 H 2.515625 c -0.21875,0 -0.328125,0 -0.328125,0.21875 0,0.125 0.109375,0.125 0.3125,0.125 0.40625,0 0.703125,0 0.703125,0.203125 0,0.03125 0,0.0625 -0.046875,0.25 l -1.4375,5.78125 c -0.109375,0.421875 -0.140625,0.5 -1,0.5 -0.1875,0 -0.296875,0 -0.296875,0.21875 C 0.421875,0 0.515625,0 0.71875,0 H 6.375 c 0.25,0 0.265625,-0.015625 0.34375,-0.1875 z m 0,0"
             style="stroke:none;stroke-width:0"
             inkscape:connector-curvature="0" />
        </g>
        <g
           id="g1596"
           style="fill:#000000;fill-opacity:1">
          <path
             id="path1594"
             transform="translate(163.792,134.765)"
             d="m 3.609375,2.625 c 0,-0.046875 0,-0.0625 -0.1875,-0.25 C 2.0625,1 1.71875,-1.0625 1.71875,-2.71875 c 0,-1.90625 0.40625,-3.796875 1.75,-5.171875 0.140625,-0.125 0.140625,-0.140625 0.140625,-0.1875 0,-0.0625 -0.046875,-0.09375 -0.109375,-0.09375 -0.109375,0 -1.09375,0.734375 -1.734375,2.125 -0.5625,1.1875 -0.6875,2.40625 -0.6875,3.328125 0,0.84375 0.125,2.15625 0.71875,3.390625 C 2.453125,2.015625 3.390625,2.71875 3.5,2.71875 3.5625,2.71875 3.609375,2.6875 3.609375,2.625 Z m 0,0"
             style="stroke:none;stroke-width:0"
             inkscape:connector-curvature="0" />
        </g>
        <g
           id="g1600"
           style="fill:#000000;fill-opacity:1">
          <path
             id="path1598"
             transform="translate(168.034,134.765)"
             d="m 4.921875,-4.703125 c 0,-0.046875 -0.03125,-0.109375 -0.09375,-0.109375 -0.125,0 -0.5625,0.4375 -0.75,0.75 C 3.84375,-4.640625 3.40625,-4.828125 3.0625,-4.828125 c -1.28125,0 -2.625,1.625 -2.625,3.203125 0,1.0625 0.640625,1.75 1.4375,1.75 0.46875,0 0.890625,-0.265625 1.28125,-0.65625 C 3.0625,-0.15625 2.703125,1.3125 2.671875,1.421875 2.578125,1.71875 2.5,1.765625 1.890625,1.78125 c -0.140625,0 -0.25,0 -0.25,0.21875 0,0 0,0.109375 0.140625,0.109375 0.34375,0 0.734375,-0.03125 1.09375,-0.03125 0.359375,0 0.75,0.03125 1.109375,0.03125 0.0625,0 0.203125,0 0.203125,-0.21875 C 4.1875,1.78125 4.078125,1.78125 3.90625,1.78125 3.375,1.78125 3.375,1.703125 3.375,1.609375 c 0,-0.078125 0.03125,-0.140625 0.046875,-0.25 z M 1.90625,-0.125 c -0.65625,0 -0.703125,-0.828125 -0.703125,-1.015625 0,-0.53125 0.328125,-1.71875 0.515625,-2.171875 0.328125,-0.8125 0.90625,-1.265625 1.34375,-1.265625 0.71875,0 0.859375,0.875 0.859375,0.953125 0,0.0625 -0.59375,2.453125 -0.625,2.5 -0.171875,0.3125 -0.78125,1 -1.390625,1 z m 0,0"
             style="stroke:none;stroke-width:0"
             inkscape:connector-curvature="0" />
        </g>
        <g
           id="g1604"
           style="fill:#000000;fill-opacity:1">
          <path
             id="path1602"
             transform="translate(173.296,134.765)"
             d="m 3.15625,-2.71875 c 0,-0.859375 -0.125,-2.171875 -0.71875,-3.40625 -0.65625,-1.34375 -1.59375,-2.046875 -1.703125,-2.046875 -0.0625,0 -0.109375,0.03125 -0.109375,0.09375 0,0.046875 0,0.0625 0.203125,0.265625 1.0625,1.078125 1.6875,2.8125 1.6875,5.09375 0,1.859375 -0.40625,3.78125 -1.75,5.15625 C 0.625,2.5625 0.625,2.578125 0.625,2.625 c 0,0.0625 0.046875,0.09375 0.109375,0.09375 0.109375,0 1.09375,-0.734375 1.734375,-2.125 0.546875,-1.1875 0.6875,-2.40625 0.6875,-3.3125 z m 0,0"
             style="stroke:none;stroke-width:0"
             inkscape:connector-curvature="0" />
        </g>
      </g>
    </g>
    <g
       id="g1727"
       ns1:jacobian_sqrt="0.352778"
       inkscapeversion="0.92.4"
       ns1:alignment="middle center"
       ns1:scale="1.0"
       ns1:preamble="/home/danft/.config/inkscape/extensions/textext/default_packages.tex"
       ns1:text="\\fontsize{11pt}{1em}{\\selectfont $\\partial E(p)$}"
       ns1:pdfconverter="pdf2svg"
       ns1:texconverter="pdflatex"
       ns1:version="0.11.0"
       transform="matrix(0.352778,0,0,0.352778,179.69115,146.67679)">
      <g
         id="g1725">
        <g
           id="g1707"
           style="fill:#000000;fill-opacity:1">
          <path
             id="path1705"
             transform="translate(148.712,134.765)"
             d="M 5.046875,-3.703125 C 4.9375,-4.375 4.5,-4.984375 3.640625,-4.984375 c -0.65625,0 -1.375,0.171875 -2.21875,1.03125 -0.90625,0.90625 -0.984375,1.90625 -0.984375,2.25 0,0.671875 0.484375,1.9375 2,1.9375 2.59375,0 3.734375,-3.65625 3.734375,-5.21875 0,-1.734375 -1.015625,-2.828125 -2.359375,-2.828125 -1.578125,0 -2.078125,1.421875 -2.078125,1.734375 0,0.140625 0.09375,0.375 0.421875,0.375 0.359375,0 0.578125,-0.328125 0.578125,-0.578125 0,-0.375 -0.328125,-0.375 -0.515625,-0.375 0.484375,-0.8125 1.265625,-0.875 1.578125,-0.875 0.796875,0 1.5625,0.5625 1.5625,1.96875 0,0.421875 -0.0625,0.984375 -0.296875,1.859375 z M 2.46875,-0.0625 c -1.1875,0 -1.1875,-1.125 -1.1875,-1.234375 C 1.28125,-1.59375 1.546875,-3.125 2,-3.78125 2.4375,-4.390625 2.96875,-4.75 3.640625,-4.75 c 1.1875,0 1.21875,1.234375 1.21875,1.453125 0,0.78125 -0.703125,3.234375 -2.390625,3.234375 z m 0,0"
             style="stroke:none;stroke-width:0"
             inkscape:connector-curvature="0" />
        </g>
        <g
           id="g1711"
           style="fill:#000000;fill-opacity:1">
          <path
             id="path1709"
             transform="translate(155.11455,134.765)"
             d="m 7.71875,-2.546875 c 0.03125,-0.046875 0.0625,-0.125 0.0625,-0.140625 0,-0.015625 0,-0.125 -0.140625,-0.125 -0.09375,0 -0.109375,0.0625 -0.140625,0.125 -0.703125,1.625 -1.109375,2.34375 -2.96875,2.34375 H 2.9375 c -0.15625,0 -0.171875,0 -0.25,0 C 2.578125,-0.359375 2.546875,-0.375 2.546875,-0.453125 c 0,-0.03125 0,-0.0625 0.0625,-0.25 L 3.34375,-3.6875 h 1.078125 c 0.9375,0 0.9375,0.234375 0.9375,0.5 0,0.078125 0,0.203125 -0.078125,0.53125 C 5.25,-2.59375 5.25,-2.5625 5.25,-2.53125 c 0,0.0625 0.046875,0.125 0.140625,0.125 0.078125,0 0.109375,-0.0625 0.15625,-0.21875 l 0.625,-2.5625 c 0,-0.0625 -0.046875,-0.109375 -0.125,-0.109375 -0.109375,0 -0.125,0.0625 -0.15625,0.1875 C 5.65625,-4.28125 5.46875,-4.03125 4.453125,-4.03125 H 3.4375 l 0.65625,-2.625 c 0.09375,-0.375 0.109375,-0.421875 0.578125,-0.421875 H 6.21875 c 1.328125,0 1.65625,0.3125 1.65625,1.203125 0,0.265625 0,0.296875 -0.046875,0.578125 0,0.078125 -0.015625,0.15625 -0.015625,0.203125 0,0.0625 0.046875,0.125 0.140625,0.125 0.125,0 0.125,-0.0625 0.15625,-0.265625 L 8.328125,-7.125 C 8.359375,-7.421875 8.296875,-7.421875 8.03125,-7.421875 H 2.515625 c -0.21875,0 -0.328125,0 -0.328125,0.21875 0,0.125 0.109375,0.125 0.3125,0.125 0.40625,0 0.703125,0 0.703125,0.203125 0,0.03125 0,0.0625 -0.046875,0.25 l -1.4375,5.78125 c -0.109375,0.421875 -0.140625,0.5 -1,0.5 -0.1875,0 -0.296875,0 -0.296875,0.21875 C 0.421875,0 0.515625,0 0.71875,0 H 6.375 c 0.25,0 0.265625,-0.015625 0.34375,-0.1875 z m 0,0"
             style="stroke:none;stroke-width:0"
             inkscape:connector-curvature="0" />
        </g>
        <g
           id="g1715"
           style="fill:#000000;fill-opacity:1">
          <path
             id="path1713"
             transform="translate(163.792,134.765)"
             d="m 3.609375,2.625 c 0,-0.046875 0,-0.0625 -0.1875,-0.25 C 2.0625,1 1.71875,-1.0625 1.71875,-2.71875 c 0,-1.90625 0.40625,-3.796875 1.75,-5.171875 0.140625,-0.125 0.140625,-0.140625 0.140625,-0.1875 0,-0.0625 -0.046875,-0.09375 -0.109375,-0.09375 -0.109375,0 -1.09375,0.734375 -1.734375,2.125 -0.5625,1.1875 -0.6875,2.40625 -0.6875,3.328125 0,0.84375 0.125,2.15625 0.71875,3.390625 C 2.453125,2.015625 3.390625,2.71875 3.5,2.71875 3.5625,2.71875 3.609375,2.6875 3.609375,2.625 Z m 0,0"
             style="stroke:none;stroke-width:0"
             inkscape:connector-curvature="0" />
        </g>
        <g
           id="g1719"
           style="fill:#000000;fill-opacity:1">
          <path
             id="path1717"
             transform="translate(168.034,134.765)"
             d="M 0.484375,1.328125 C 0.40625,1.703125 0.375,1.78125 -0.09375,1.78125 c -0.140625,0 -0.25,0 -0.25,0.203125 0,0.09375 0.046875,0.125 0.140625,0.125 0.296875,0 0.609375,-0.03125 0.90625,-0.03125 0.359375,0 0.734375,0.03125 1.078125,0.03125 0.0625,0 0.203125,0 0.203125,-0.21875 C 1.984375,1.78125 1.875,1.78125 1.71875,1.78125 c -0.546875,0 -0.546875,-0.078125 -0.546875,-0.171875 0,-0.140625 0.46875,-1.921875 0.546875,-2.1875 0.140625,0.3125 0.4375,0.703125 1,0.703125 1.265625,0 2.625,-1.59375 2.625,-3.203125 0,-1.015625 -0.625,-1.75 -1.453125,-1.75 -0.546875,0 -1.0625,0.40625 -1.421875,0.828125 -0.109375,-0.59375 -0.578125,-0.828125 -0.984375,-0.828125 -0.5,0 -0.703125,0.4375 -0.8125,0.625 -0.1875,0.375 -0.328125,1.03125 -0.328125,1.0625 0,0.109375 0.109375,0.109375 0.125,0.109375 0.109375,0 0.125,-0.015625 0.1875,-0.25 0.1875,-0.78125 0.40625,-1.296875 0.796875,-1.296875 0.1875,0 0.328125,0.078125 0.328125,0.5 0,0.25 -0.03125,0.375 -0.0625,0.5625 z M 2.40625,-3.40625 C 2.484375,-3.703125 2.78125,-4 2.984375,-4.171875 c 0.375,-0.328125 0.6875,-0.40625 0.875,-0.40625 0.4375,0 0.703125,0.375 0.703125,1.015625 0,0.65625 -0.359375,1.90625 -0.5625,2.3125 -0.375,0.765625 -0.890625,1.125 -1.296875,1.125 -0.71875,0 -0.859375,-0.90625 -0.859375,-0.96875 0,-0.015625 0,-0.046875 0.03125,-0.171875 z m 0,0"
             style="stroke:none;stroke-width:0"
             inkscape:connector-curvature="0" />
        </g>
        <g
           id="g1723"
           style="fill:#000000;fill-opacity:1">
          <path
             id="path1721"
             transform="translate(173.523,134.765)"
             d="m 3.15625,-2.71875 c 0,-0.859375 -0.125,-2.171875 -0.71875,-3.40625 -0.65625,-1.34375 -1.59375,-2.046875 -1.703125,-2.046875 -0.0625,0 -0.109375,0.03125 -0.109375,0.09375 0,0.046875 0,0.0625 0.203125,0.265625 1.0625,1.078125 1.6875,2.8125 1.6875,5.09375 0,1.859375 -0.40625,3.78125 -1.75,5.15625 C 0.625,2.5625 0.625,2.578125 0.625,2.625 c 0,0.0625 0.046875,0.09375 0.109375,0.09375 0.109375,0 1.09375,-0.734375 1.734375,-2.125 0.546875,-1.1875 0.6875,-2.40625 0.6875,-3.3125 z m 0,0"
             style="stroke:none;stroke-width:0"
             inkscape:connector-curvature="0" />
        </g>
      </g>
    </g>
  </g>
</svg>
