<?xml version="1.0" encoding="UTF-8" standalone="no"?>
<!-- Created with Inkscape (http://www.inkscape.org/) -->

<svg
   xmlns:dc="http://purl.org/dc/elements/1.1/"
   xmlns:cc="http://creativecommons.org/ns#"
   xmlns:rdf="http://www.w3.org/1999/02/22-rdf-syntax-ns#"
   xmlns:svg="http://www.w3.org/2000/svg"
   xmlns="http://www.w3.org/2000/svg"
   xmlns:sodipodi="http://sodipodi.sourceforge.net/DTD/sodipodi-0.dtd"
   xmlns:inkscape="http://www.inkscape.org/namespaces/inkscape"
   width="297mm"
   height="210mm"
   viewBox="0 0 297 210"
   version="1.1"
   id="svg1199"
   inkscape:version="0.92.4 (5da689c313, 2019-01-14)"
   sodipodi:docname="MCE-vertices.svg">
  <defs
     id="defs1193" />
  <sodipodi:namedview
     id="base"
     pagecolor="#ffffff"
     bordercolor="#666666"
     borderopacity="1.0"
     inkscape:pageopacity="0.0"
     inkscape:pageshadow="2"
     inkscape:zoom="0.46000001"
     inkscape:cx="448.73438"
     inkscape:cy="283.09296"
     inkscape:document-units="mm"
     inkscape:current-layer="layer1"
     showgrid="false"
     inkscape:window-width="1920"
     inkscape:window-height="1017"
     inkscape:window-x="1920"
     inkscape:window-y="35"
     inkscape:window-maximized="1" />
  <metadata
     id="metadata1196">
    <rdf:RDF>
      <cc:Work
         rdf:about="">
        <dc:format>image/svg+xml</dc:format>
        <dc:type
           rdf:resource="http://purl.org/dc/dcmitype/StillImage" />
        <dc:title />
      </cc:Work>
    </rdf:RDF>
  </metadata>
  <g
     inkscape:label="Layer 1"
     inkscape:groupmode="layer"
     id="layer1"
     transform="translate(0,-87)">
    <ellipse
       ry="67.5"
       rx="101.25"
       cy="224.52194"
       cx="294.88824"
       style="opacity:1;fill:none;fill-opacity:1;stroke:#000000;stroke-width:1.6875;stroke-linecap:butt;stroke-linejoin:miter;stroke-miterlimit:4;stroke-dasharray:1.68750004, 3.3750001;stroke-dashoffset:0;stroke-opacity:1;paint-order:stroke markers fill"
       id="ellipse1050" />
    <rect
       style="opacity:1;fill:#000000;fill-opacity:1;stroke:#000000;stroke-width:3.375;stroke-linecap:butt;stroke-linejoin:miter;stroke-miterlimit:4;stroke-dasharray:none;stroke-dashoffset:0;stroke-opacity:1;paint-order:stroke markers fill"
       id="rect960"
       width="3.375"
       height="3.375"
       x="293.20074"
       y="222.83444" />
    <g
       id="g1066"
       transform="translate(108.6029,57.130548)">
      <g
         word-spacing="normal"
         letter-spacing="normal"
         font-size-adjust="none"
         font-stretch="normal"
         font-weight="normal"
         font-variant="normal"
         font-style="normal"
         stroke-miterlimit="10.433"
         xml:space="preserve"
         transform="matrix(0.3,0,0,-0.3,-52.5,222.75)"
         id="content"
         style="font-style:normal;font-variant:normal;font-weight:normal;font-stretch:normal;letter-spacing:normal;word-spacing:normal;text-anchor:start;fill:none;fill-opacity:1;fill-rule:evenodd;stroke:#000000;stroke-linecap:butt;stroke-linejoin:miter;stroke-miterlimit:10.43299961;stroke-dasharray:none;stroke-dashoffset:0;stroke-opacity:1"><path
           id="path1061"
           d="m 457.97,399.54 -0.04,-0.17 -0.04,-0.16 -0.03,-0.15 -0.04,-0.15 -0.04,-0.13 -0.04,-0.13 -0.03,-0.13 -0.04,-0.11 -0.05,-0.11 -0.04,-0.1 -0.05,-0.09 -0.05,-0.09 -0.05,-0.08 -0.06,-0.08 -0.06,-0.07 -0.07,-0.06 -0.08,-0.06 -0.08,-0.05 -0.09,-0.05 -0.09,-0.04 -0.1,-0.04 -0.11,-0.04 -0.12,-0.03 -0.13,-0.02 -0.14,-0.03 -0.14,-0.01 -0.08,-0.01 -0.08,-0.01 -0.08,-0.01 h -0.09 l -0.09,-0.01 h -0.09 -0.1 l -0.09,-0.01 h -0.1 -0.11 -0.1 -0.11 c -0.66,0 -1.27,0 -1.27,-1.05 0,-0.42 0.28,-0.64 0.72,-0.64 1.47,0 3.05,0.16 4.58,0.16 1.79,0 3.65,-0.16 5.4,-0.16 0.27,0 0.99,0 0.99,1.08 0,0.61 -0.55,0.61 -1.32,0.61 -2.73,0 -2.73,0.37 -2.73,0.87 0,0.66 2.3,9.55 2.67,10.91 0.72,-1.58 2.24,-3.48 5.02,-3.48 l -0.05,1.18 c -3.59,0 -4.31,4.53 -4.31,4.86 0,0.11 0,0.22 0.17,0.88 l 2.67,10.68 c 0.38,1.49 1.85,3 2.83,3.83 1.91,1.69 3.5,2.08 4.42,2.08 2.19,0 3.5,-1.92 3.5,-5.14 0,-3.22 -1.81,-9.48 -2.79,-11.56 -1.85,-3.81 -4.47,-5.63 -6.49,-5.63 l 0.05,-1.18 c 6.33,0 13.15,7.95 13.15,15.98 0,5.12 -3.11,8.72 -7.25,8.72 -2.73,0 -5.36,-1.95 -7.15,-4.1 -0.55,2.96 -2.89,4.1 -4.91,4.1 -2.51,0 -3.55,-2.13 -4.05,-3.11 -0.96,-1.84 -1.68,-5.13 -1.68,-5.28 0,-0.55 0.54,-0.55 0.65,-0.55 0.55,0 0.61,0.05 0.94,1.25 0.92,3.88 2.02,6.5 3.97,6.5 0.94,0 1.7,-0.44 1.7,-2.51 0,-1.25 -0.17,-1.86 -0.39,-2.79 z"
           inkscape:connector-curvature="0"
           style="fill:#000000;stroke-width:0" /><path
           id="path1063"
           d="m 495.53,423.45 v 0.04 0.05 0.05 0.05 0.04 0.04 0.04 l -0.01,0.04 v 0.04 0.04 0.03 0.04 l -0.01,0.03 v 0.03 l -0.01,0.04 v 0.03 l -0.01,0.02 v 0.03 l -0.01,0.03 v 0.02 l -0.02,0.05 -0.01,0.04 -0.02,0.04 -0.03,0.04 -0.02,0.03 -0.03,0.03 -0.03,0.03 -0.03,0.02 -0.04,0.02 -0.04,0.02 -0.05,0.01 -0.05,0.02 -0.05,0.01 -0.06,0.01 h -0.06 l -0.03,0.01 h -0.03 -0.04 -0.03 -0.04 l -0.04,0.01 h -0.04 -0.04 -0.04 -0.05 -0.04 -0.05 -0.05 -0.04 c -1.65,-1.59 -3.76,-2.56 -7.55,-2.56 v -1.31 c 1.08,0 3.23,0 5.55,1.07 V 401.3 c 0,-1.46 -0.13,-1.95 -3.91,-1.95 h -1.41 v -1.31 c 1.64,0.12 5.08,0.12 6.86,0.12 1.8,0 5.27,0 6.91,-0.12 v 1.31 h -1.39 c -3.8,0 -3.91,0.49 -3.91,1.95 z"
           inkscape:connector-curvature="0"
           style="fill:#000000;stroke-width:0" /></g>    </g>
    <ellipse
       ry="67.5"
       rx="101.25"
       cy="254.90504"
       cx="177.82782"
       style="opacity:1;fill:none;fill-opacity:1;stroke:#000000;stroke-width:1.6875;stroke-linecap:butt;stroke-linejoin:miter;stroke-miterlimit:4;stroke-dasharray:1.68750004, 3.3750001;stroke-dashoffset:0;stroke-opacity:1;paint-order:stroke markers fill"
       id="ellipse1050-6" />
    <rect
       style="opacity:1;fill:#000000;fill-opacity:1;stroke:#000000;stroke-width:3.375;stroke-linecap:butt;stroke-linejoin:miter;stroke-miterlimit:4;stroke-dasharray:none;stroke-dashoffset:0;stroke-opacity:1;paint-order:stroke markers fill"
       id="rect960-7"
       width="3.375"
       height="3.375"
       x="176.14032"
       y="253.21754" />
    <ellipse
       ry="67.5"
       rx="101.25"
       cy="167.05472"
       cx="203.9084"
       style="opacity:1;fill:none;fill-opacity:1;stroke:#000000;stroke-width:1.6875;stroke-linecap:butt;stroke-linejoin:miter;stroke-miterlimit:4;stroke-dasharray:1.68750004, 3.3750001;stroke-dashoffset:0;stroke-opacity:1;paint-order:stroke markers fill"
       id="ellipse1050-3" />
    <rect
       style="opacity:1;fill:#000000;fill-opacity:1;stroke:#000000;stroke-width:3.375;stroke-linecap:butt;stroke-linejoin:miter;stroke-miterlimit:4;stroke-dasharray:none;stroke-dashoffset:0;stroke-opacity:1;paint-order:stroke markers fill"
       id="rect960-5"
       width="3.375"
       height="3.375"
       x="202.2209"
       y="165.36722" />
    <path
       style="opacity:1;fill:none;fill-opacity:1;stroke:#000000;stroke-width:1.6875;stroke-linecap:butt;stroke-linejoin:miter;stroke-miterlimit:4;stroke-dasharray:none;stroke-dashoffset:0;stroke-opacity:1;paint-order:stroke markers fill"
       d="m 207.64924,190.40195 a 101.25,67.5 0 0 0 -14.01019,34.11943 101.25,67.5 0 0 0 1.15456,9.72848 101.25,67.5 0 0 0 9.11457,0.30522 101.25,67.5 0 0 0 61.14221,-13.76951 101.25,67.5 0 0 0 -57.40115,-30.38362 z"
       id="ellipse1200"
       inkscape:connector-curvature="0" />
    <circle
       style="opacity:1;fill:#b3b3b3;fill-opacity:1;stroke:#000000;stroke-width:1.6875;stroke-linecap:butt;stroke-linejoin:miter;stroke-miterlimit:4;stroke-dasharray:none;stroke-dashoffset:0;stroke-opacity:1;paint-order:stroke markers fill"
       id="path1207"
       cx="194.81453"
       cy="232.94246"
       r="3.375" />
    <circle
       style="opacity:1;fill:#b3b3b3;fill-opacity:1;stroke:#000000;stroke-width:1.6875;stroke-linecap:butt;stroke-linejoin:miter;stroke-miterlimit:4;stroke-dasharray:none;stroke-dashoffset:0;stroke-opacity:1;paint-order:stroke markers fill"
       id="path1207-6"
       cx="263.96231"
       cy="221.44643"
       r="3.375" />
    <circle
       style="opacity:1;fill:#b3b3b3;fill-opacity:1;stroke:#000000;stroke-width:1.6875;stroke-linecap:butt;stroke-linejoin:miter;stroke-miterlimit:4;stroke-dasharray:none;stroke-dashoffset:0;stroke-opacity:1;paint-order:stroke markers fill"
       id="path1207-2"
       cx="207.34004"
       cy="191.24789"
       r="3.375" />
    <g
       id="g1253"
       transform="translate(220.63942,123.18079)">
      <g
         word-spacing="normal"
         letter-spacing="normal"
         font-size-adjust="none"
         font-stretch="normal"
         font-weight="normal"
         font-variant="normal"
         font-style="normal"
         stroke-miterlimit="10.433"
         xml:space="preserve"
         transform="matrix(0.3,0,0,-0.3,-52.5,222.75)"
         id="g1251"
         style="font-style:normal;font-variant:normal;font-weight:normal;font-stretch:normal;letter-spacing:normal;word-spacing:normal;text-anchor:start;fill:none;fill-opacity:1;fill-rule:evenodd;stroke:#000000;stroke-linecap:butt;stroke-linejoin:miter;stroke-miterlimit:10.43299961;stroke-dasharray:none;stroke-dashoffset:0;stroke-opacity:1"><path
           id="path1247"
           d="m 457.97,399.54 -0.04,-0.17 -0.04,-0.16 -0.03,-0.15 -0.04,-0.15 -0.04,-0.13 -0.04,-0.13 -0.03,-0.13 -0.04,-0.11 -0.05,-0.11 -0.04,-0.1 -0.05,-0.09 -0.05,-0.09 -0.05,-0.08 -0.06,-0.08 -0.06,-0.07 -0.07,-0.06 -0.08,-0.06 -0.08,-0.05 -0.09,-0.05 -0.09,-0.04 -0.1,-0.04 -0.11,-0.04 -0.12,-0.03 -0.13,-0.02 -0.14,-0.03 -0.14,-0.01 -0.08,-0.01 -0.08,-0.01 -0.08,-0.01 h -0.09 l -0.09,-0.01 h -0.09 -0.1 l -0.09,-0.01 h -0.1 -0.11 -0.1 -0.11 c -0.66,0 -1.27,0 -1.27,-1.05 0,-0.42 0.28,-0.64 0.72,-0.64 1.47,0 3.05,0.16 4.58,0.16 1.79,0 3.65,-0.16 5.4,-0.16 0.27,0 0.99,0 0.99,1.08 0,0.61 -0.55,0.61 -1.32,0.61 -2.73,0 -2.73,0.37 -2.73,0.87 0,0.66 2.3,9.55 2.67,10.91 0.72,-1.58 2.24,-3.48 5.02,-3.48 l -0.05,1.18 c -3.59,0 -4.31,4.53 -4.31,4.86 0,0.11 0,0.22 0.17,0.88 l 2.67,10.68 c 0.38,1.49 1.85,3 2.83,3.83 1.91,1.69 3.5,2.08 4.42,2.08 2.19,0 3.5,-1.92 3.5,-5.14 0,-3.22 -1.81,-9.48 -2.79,-11.56 -1.85,-3.81 -4.47,-5.63 -6.49,-5.63 l 0.05,-1.18 c 6.33,0 13.15,7.95 13.15,15.98 0,5.12 -3.11,8.72 -7.25,8.72 -2.73,0 -5.36,-1.95 -7.15,-4.1 -0.55,2.96 -2.89,4.1 -4.91,4.1 -2.51,0 -3.55,-2.13 -4.05,-3.11 -0.96,-1.84 -1.68,-5.13 -1.68,-5.28 0,-0.55 0.54,-0.55 0.65,-0.55 0.55,0 0.61,0.05 0.94,1.25 0.92,3.88 2.02,6.5 3.97,6.5 0.94,0 1.7,-0.44 1.7,-2.51 0,-1.25 -0.17,-1.86 -0.39,-2.79 z"
           inkscape:connector-curvature="0"
           style="fill:#000000;stroke-width:0" /><path
           id="path1249"
           d="m 494.25,406.18 0.06,0.06 0.07,0.06 0.08,0.06 0.07,0.07 0.09,0.08 0.09,0.07 0.09,0.08 0.09,0.08 0.1,0.08 0.1,0.08 0.21,0.17 0.21,0.18 0.22,0.18 0.21,0.17 0.22,0.18 0.2,0.17 0.1,0.08 0.1,0.08 0.1,0.08 0.09,0.07 0.09,0.08 0.08,0.06 0.08,0.07 0.07,0.06 0.07,0.06 0.06,0.06 c 2.47,2.28 4.83,4.47 4.83,8.09 0,4.75 -4,7.83 -8.98,7.83 -4.78,0 -7.94,-3.64 -7.94,-7.19 0,-1.95 1.56,-2.23 2.12,-2.23 0.83,0 2.07,0.59 2.07,2.11 0,2.08 -1.99,2.08 -2.47,2.08 1.15,2.92 3.83,3.9 5.78,3.9 3.72,0 5.62,-3.14 5.62,-6.5 0,-4.14 -2.9,-7.17 -7.61,-12 l -5.03,-5.19 c -0.48,-0.43 -0.48,-0.51 -0.48,-1.51 h 15.77 l 1.15,7.14 h -1.23 c -0.13,-0.8 -0.46,-2.8 -0.92,-3.55 -0.24,-0.33 -3.27,-0.33 -3.91,-0.33 h -7.11 z"
           inkscape:connector-curvature="0"
           style="fill:#000000;stroke-width:0" /></g>    </g>
    <g
       id="g1288"
       transform="translate(69.879147,154.62371)">
      <g
         word-spacing="normal"
         letter-spacing="normal"
         font-size-adjust="none"
         font-stretch="normal"
         font-weight="normal"
         font-variant="normal"
         font-style="normal"
         stroke-miterlimit="10.433"
         xml:space="preserve"
         transform="matrix(0.3,0,0,-0.3,-52.5,222.75)"
         id="g1286"
         style="font-style:normal;font-variant:normal;font-weight:normal;font-stretch:normal;letter-spacing:normal;word-spacing:normal;text-anchor:start;fill:none;fill-opacity:1;fill-rule:evenodd;stroke:#000000;stroke-linecap:butt;stroke-linejoin:miter;stroke-miterlimit:10.43299961;stroke-dasharray:none;stroke-dashoffset:0;stroke-opacity:1"><path
           id="path1282"
           d="m 457.97,399.54 -0.04,-0.17 -0.04,-0.16 -0.03,-0.15 -0.04,-0.15 -0.04,-0.13 -0.04,-0.13 -0.03,-0.13 -0.04,-0.11 -0.05,-0.11 -0.04,-0.1 -0.05,-0.09 -0.05,-0.09 -0.05,-0.08 -0.06,-0.08 -0.06,-0.07 -0.07,-0.06 -0.08,-0.06 -0.08,-0.05 -0.09,-0.05 -0.09,-0.04 -0.1,-0.04 -0.11,-0.04 -0.12,-0.03 -0.13,-0.02 -0.14,-0.03 -0.14,-0.01 -0.08,-0.01 -0.08,-0.01 -0.08,-0.01 h -0.09 l -0.09,-0.01 h -0.09 -0.1 l -0.09,-0.01 h -0.1 -0.11 -0.1 -0.11 c -0.66,0 -1.27,0 -1.27,-1.05 0,-0.42 0.28,-0.64 0.72,-0.64 1.47,0 3.05,0.16 4.58,0.16 1.79,0 3.65,-0.16 5.4,-0.16 0.27,0 0.99,0 0.99,1.08 0,0.61 -0.55,0.61 -1.32,0.61 -2.73,0 -2.73,0.37 -2.73,0.87 0,0.66 2.3,9.55 2.67,10.91 0.72,-1.58 2.24,-3.48 5.02,-3.48 l -0.05,1.18 c -3.59,0 -4.31,4.53 -4.31,4.86 0,0.11 0,0.22 0.17,0.88 l 2.67,10.68 c 0.38,1.49 1.85,3 2.83,3.83 1.91,1.69 3.5,2.08 4.42,2.08 2.19,0 3.5,-1.92 3.5,-5.14 0,-3.22 -1.81,-9.48 -2.79,-11.56 -1.85,-3.81 -4.47,-5.63 -6.49,-5.63 l 0.05,-1.18 c 6.33,0 13.15,7.95 13.15,15.98 0,5.12 -3.11,8.72 -7.25,8.72 -2.73,0 -5.36,-1.95 -7.15,-4.1 -0.55,2.96 -2.89,4.1 -4.91,4.1 -2.51,0 -3.55,-2.13 -4.05,-3.11 -0.96,-1.84 -1.68,-5.13 -1.68,-5.28 0,-0.55 0.54,-0.55 0.65,-0.55 0.55,0 0.61,0.05 0.94,1.25 0.92,3.88 2.02,6.5 3.97,6.5 0.94,0 1.7,-0.44 1.7,-2.51 0,-1.25 -0.17,-1.86 -0.39,-2.79 z"
           inkscape:connector-curvature="0"
           style="fill:#000000;stroke-width:0" /><path
           id="path1284"
           d="m 493.09,411.37 0.3,-0.01 0.28,-0.02 0.28,-0.03 0.27,-0.05 0.26,-0.06 0.26,-0.07 0.25,-0.09 0.24,-0.1 0.23,-0.11 0.22,-0.13 0.22,-0.13 0.21,-0.16 0.2,-0.16 0.19,-0.17 0.18,-0.19 0.17,-0.2 0.16,-0.22 0.15,-0.22 0.15,-0.24 0.13,-0.25 0.12,-0.26 0.12,-0.27 0.1,-0.28 0.09,-0.3 0.09,-0.31 0.07,-0.32 0.06,-0.33 0.05,-0.34 0.04,-0.35 0.03,-0.37 0.02,-0.38 v -0.38 c 0,-5 -2.82,-6.47 -4.93,-6.47 -2.21,0 -5.19,0.8 -6.6,2.9 1.44,0 2.44,0.93 2.44,2.24 0,1.28 -0.92,2.2 -2.19,2.2 -1.07,0 -2.2,-0.69 -2.2,-2.28 0,-3.78 4.08,-6.26 8.63,-6.26 5.29,0 9.01,3.67 9.01,7.67 0,3.29 -2.64,6.33 -6.7,7.22 3.14,1.11 5.5,3.82 5.5,7.01 0,3.19 -3.6,5.47 -7.74,5.47 -4.26,0 -7.5,-2.31 -7.5,-5.34 0,-1.49 1,-2.13 2.03,-2.13 1.24,0 2.04,0.88 2.04,2.03 0,1.49 -1.27,2.05 -2.16,2.08 1.69,2.2 4.75,2.31 5.47,2.31 1.05,0 4.08,-0.31 4.08,-4.42 0,-2.8 -1.16,-4.47 -1.72,-5.11 -1.21,-1.23 -2.13,-1.31 -4.55,-1.47 -0.76,-0.04 -1.08,-0.07 -1.08,-0.61 0,-0.54 0.36,-0.54 1.03,-0.54 z"
           inkscape:connector-curvature="0"
           style="fill:#000000;stroke-width:0" /></g>    </g>
    <g
       id="g1335"
       transform="translate(-8.0525362,11.503623)">
      <g
         word-spacing="normal"
         letter-spacing="normal"
         font-size-adjust="none"
         font-stretch="normal"
         font-weight="normal"
         font-variant="normal"
         font-style="normal"
         stroke-miterlimit="10.433"
         xml:space="preserve"
         transform="matrix(0.3,0,0,-0.3,-52.5,222.75)"
         id="g1333"
         style="font-style:normal;font-variant:normal;font-weight:normal;font-stretch:normal;letter-spacing:normal;word-spacing:normal;text-anchor:start;fill:none;fill-opacity:1;fill-rule:evenodd;stroke:#000000;stroke-linecap:butt;stroke-linejoin:miter;stroke-miterlimit:10.43299961;stroke-dasharray:none;stroke-dashoffset:0;stroke-opacity:1"><path
           id="path1321"
           d="m 480.79,424.7 -0.06,0.31 -0.07,0.32 -0.07,0.31 -0.09,0.3 -0.1,0.31 -0.1,0.3 -0.12,0.29 -0.13,0.29 -0.13,0.28 -0.15,0.28 -0.16,0.27 -0.17,0.26 -0.18,0.25 -0.19,0.25 -0.2,0.24 -0.21,0.22 -0.23,0.22 -0.23,0.21 -0.25,0.19 -0.25,0.19 -0.27,0.17 -0.28,0.16 -0.29,0.15 -0.3,0.14 -0.31,0.12 -0.32,0.1 -0.34,0.09 -0.35,0.08 -0.36,0.06 -0.37,0.04 -0.38,0.03 -0.39,0.01 v -1.21 c 5.95,0 6.06,-6.11 6.06,-7.2 0,-3.92 -3.5,-16.2 -11.89,-16.2 v 0 c -6,0 -6,5.62 -6,6.17 0,1.47 1.36,9.11 3.59,12.37 2.19,3.11 4.86,4.86 8.24,4.86 v 1.21 c -3.33,0 -6.88,-0.88 -11.13,-5.13 -4.53,-4.53 -4.9,-9.61 -4.9,-11.3 0,-3.39 2.39,-9.71 10.03,-9.71 12.98,0 18.65,18.32 18.65,26.14 0,8.67 -5.06,14.12 -11.78,14.12 -7.9,0 -10.42,-7.09 -10.42,-8.62 0,-0.75 0.44,-1.91 2.08,-1.91 1.8,0 2.94,1.64 2.94,2.89 0,1.91 -1.69,1.91 -2.57,1.91 2.41,4.04 6.29,4.37 7.86,4.37 3.99,0 7.8,-2.84 7.8,-9.87 0,-2.13 -0.31,-4.91 -1.47,-9.33 z"
           inkscape:connector-curvature="0"
           style="fill:#000000;stroke-width:0" /><path
           id="path1323"
           d="m 526.06,418.92 0.01,0.02 0.01,0.03 0.03,0.05 0.02,0.06 0.02,0.05 0.03,0.06 0.02,0.05 0.02,0.06 0.02,0.05 0.01,0.03 0.01,0.02 0.01,0.03 0.01,0.02 0.01,0.03 0.01,0.02 0.01,0.02 0.01,0.02 v 0.02 l 0.01,0.02 v 0.02 l 0.01,0.02 v 0.01 0.01 0.02 0.01 c 0,0.06 0,0.61 -0.65,0.61 -0.5,0 -0.61,-0.33 -0.72,-0.66 -3.55,-8.08 -5.56,-11.73 -14.89,-11.73 h -7.97 c -0.77,0 -0.88,0 -1.2,0.06 -0.53,0.05 -0.71,0.11 -0.71,0.55 0,0.15 0,0.26 0.28,1.25 l 3.71,14.89 h 5.4 c 4.63,0 4.63,-1.14 4.63,-2.5 0,-0.39 0,-1.05 -0.38,-2.68 -0.11,-0.28 -0.15,-0.43 -0.15,-0.6 0,-0.27 0.22,-0.6 0.7,-0.6 0.44,0 0.59,0.27 0.81,1.1 l 3.11,12.76 c 0,0.33 -0.26,0.59 -0.65,0.59 -0.49,0 -0.6,-0.32 -0.75,-0.98 -1.16,-4.14 -2.14,-5.41 -7.16,-5.41 h -5.13 l 3.27,13.16 c 0.5,1.91 0.55,2.13 2.95,2.13 h 7.69 c 6.66,0 8.3,-1.58 8.3,-6.05 0,-1.31 0,-1.42 -0.22,-2.89 0,-0.33 -0.05,-0.72 -0.05,-0.99 0,-0.28 0.16,-0.65 0.66,-0.65 0.59,0 0.64,0.33 0.75,1.36 l 1.09,9.43 c 0.17,1.47 -0.11,1.47 -1.47,1.47 h -27.54 c -1.1,0 -1.64,0 -1.64,-1.08 0,-0.6 0.48,-0.6 1.53,-0.6 2.01,0 3.54,0 3.54,-0.99 0,-0.22 0,-0.33 -0.28,-1.3 L 496,410.45 c -0.55,-2.13 -0.66,-2.56 -4.97,-2.56 -0.92,0 -1.51,0 -1.51,-1.03 0,-0.66 0.48,-0.66 1.51,-0.66 h 28.33 c 1.25,0 1.3,0.05 1.69,0.92 z"
           inkscape:connector-curvature="0"
           style="fill:#000000;stroke-width:0" /><path
           id="path1325"
           d="m 548.94,393.11 v 0.02 0.03 l -0.01,0.02 v 0.01 0.02 l -0.01,0.02 v 0.02 l -0.01,0.01 -0.01,0.03 -0.01,0.02 -0.01,0.02 -0.02,0.03 -0.02,0.02 -0.02,0.03 -0.02,0.04 -0.03,0.03 -0.03,0.04 -0.03,0.04 -0.02,0.02 -0.02,0.02 -0.02,0.02 -0.02,0.03 -0.02,0.02 -0.02,0.02 -0.02,0.03 -0.03,0.03 -0.02,0.02 -0.03,0.03 -0.03,0.03 -0.03,0.03 -0.02,0.03 -0.04,0.04 -0.03,0.03 -0.03,0.03 -0.03,0.04 -0.04,0.04 -0.04,0.03 -0.03,0.04 -0.04,0.04 -0.04,0.04 -0.05,0.05 -0.04,0.04 c -6.81,6.87 -8.56,17.19 -8.56,25.53 0,9.5 2.08,18.98 8.78,25.81 0.72,0.64 0.72,0.75 0.72,0.92 0,0.38 -0.22,0.55 -0.55,0.55 -0.55,0 -5.45,-3.72 -8.67,-10.64 -2.78,-6 -3.44,-12.06 -3.44,-16.64 0,-4.25 0.6,-10.86 3.6,-17.02 3.28,-6.71 7.96,-10.26 8.51,-10.26 0.33,0 0.55,0.17 0.55,0.55 z"
           inkscape:connector-curvature="0"
           style="fill:#000000;stroke-width:0" /><path
           id="path1327"
           d="m 554.57,399.54 -0.04,-0.17 -0.04,-0.16 -0.04,-0.15 -0.04,-0.15 -0.03,-0.13 -0.04,-0.13 -0.04,-0.13 -0.04,-0.11 -0.04,-0.11 -0.05,-0.1 -0.04,-0.09 -0.05,-0.09 -0.06,-0.08 -0.06,-0.08 -0.06,-0.07 -0.07,-0.06 -0.07,-0.06 -0.08,-0.05 -0.09,-0.05 -0.1,-0.04 -0.1,-0.04 -0.11,-0.04 -0.12,-0.03 -0.12,-0.02 -0.14,-0.03 -0.15,-0.01 -0.08,-0.01 -0.08,-0.01 -0.08,-0.01 h -0.09 l -0.08,-0.01 h -0.1 -0.09 l -0.1,-0.01 h -0.1 -0.1 -0.11 -0.11 c -0.66,0 -1.27,0 -1.27,-1.05 0,-0.42 0.29,-0.64 0.72,-0.64 1.47,0 3.05,0.16 4.58,0.16 1.8,0 3.66,-0.16 5.41,-0.16 0.26,0 0.98,0 0.98,1.08 0,0.61 -0.55,0.61 -1.31,0.61 -2.74,0 -2.74,0.37 -2.74,0.87 0,0.66 2.3,9.55 2.68,10.91 0.72,-1.58 2.23,-3.48 5.01,-3.48 l -0.04,1.18 c -3.6,0 -4.32,4.53 -4.32,4.86 0,0.11 0,0.22 0.17,0.88 l 2.68,10.68 c 0.37,1.49 1.84,3 2.82,3.83 1.91,1.69 3.5,2.08 4.43,2.08 2.18,0 3.5,-1.92 3.5,-5.14 0,-3.22 -1.82,-9.48 -2.8,-11.56 -1.85,-3.81 -4.47,-5.63 -6.48,-5.63 l 0.04,-1.18 c 6.33,0 13.16,7.95 13.16,15.98 0,5.12 -3.11,8.72 -7.25,8.72 -2.74,0 -5.36,-1.95 -7.16,-4.1 -0.54,2.96 -2.89,4.1 -4.91,4.1 -2.51,0 -3.54,-2.13 -4.04,-3.11 -0.97,-1.84 -1.69,-5.13 -1.69,-5.28 0,-0.55 0.55,-0.55 0.66,-0.55 0.54,0 0.61,0.05 0.94,1.25 0.92,3.88 2.01,6.5 3.96,6.5 0.94,0 1.71,-0.44 1.71,-2.51 0,-1.25 -0.17,-1.86 -0.39,-2.79 z"
           inkscape:connector-curvature="0"
           style="fill:#000000;stroke-width:0" /><path
           id="path1329"
           d="m 592.13,423.45 v 0.04 0.05 0.05 0.05 0.04 0.04 0.04 0.04 l -0.01,0.04 v 0.04 0.03 0.04 l -0.01,0.03 v 0.03 0.04 l -0.01,0.03 v 0.02 l -0.01,0.03 v 0.03 l -0.01,0.02 -0.02,0.05 -0.01,0.04 -0.02,0.04 -0.02,0.04 -0.03,0.03 -0.03,0.03 -0.03,0.03 -0.03,0.02 -0.04,0.02 -0.04,0.02 -0.05,0.01 -0.04,0.02 -0.06,0.01 -0.05,0.01 h -0.07 l -0.03,0.01 h -0.03 -0.04 -0.03 -0.04 l -0.04,0.01 h -0.04 -0.04 -0.04 -0.05 -0.04 -0.05 -0.04 -0.05 c -1.64,-1.59 -3.75,-2.56 -7.55,-2.56 v -1.31 c 1.08,0 3.23,0 5.55,1.07 V 401.3 c 0,-1.46 -0.13,-1.95 -3.91,-1.95 h -1.41 v -1.31 c 1.64,0.12 5.08,0.12 6.86,0.12 1.8,0 5.27,0 6.91,-0.12 v 1.31 h -1.39 c -3.8,0 -3.91,0.49 -3.91,1.95 z"
           inkscape:connector-curvature="0"
           style="fill:#000000;stroke-width:0" /><path
           id="path1331"
           d="m 619,419.84 v 0.41 0.41 l -0.01,0.44 -0.02,0.44 -0.04,0.92 -0.07,0.97 -0.09,1 -0.11,1.04 -0.15,1.07 -0.18,1.09 -0.21,1.12 -0.25,1.14 -0.3,1.15 -0.33,1.16 -0.38,1.16 -0.43,1.17 -0.24,0.58 -0.25,0.59 -0.26,0.58 -0.27,0.58 c -3.28,6.71 -7.97,10.26 -8.51,10.26 -0.33,0 -0.55,-0.22 -0.55,-0.55 0,-0.17 0,-0.28 1.03,-1.25 5.36,-5.4 8.47,-14.07 8.47,-25.48 0,-9.33 -2.03,-18.94 -8.8,-25.81 -0.7,-0.66 -0.7,-0.77 -0.7,-0.92 0,-0.33 0.22,-0.55 0.55,-0.55 0.54,0 5.45,3.7 8.67,10.64 2.78,6 3.43,12.06 3.43,16.64 z"
           inkscape:connector-curvature="0"
           style="fill:#000000;stroke-width:0" /></g>    </g>
    <g
       id="g1394"
       transform="translate(304.27083,85.12681)">
      <g
         word-spacing="normal"
         letter-spacing="normal"
         font-size-adjust="none"
         font-stretch="normal"
         font-weight="normal"
         font-variant="normal"
         font-style="normal"
         stroke-miterlimit="10.433"
         xml:space="preserve"
         transform="matrix(0.3,0,0,-0.3,-52.5,222.75)"
         id="g1392"
         style="font-style:normal;font-variant:normal;font-weight:normal;font-stretch:normal;letter-spacing:normal;word-spacing:normal;text-anchor:start;fill:none;fill-opacity:1;fill-rule:evenodd;stroke:#000000;stroke-linecap:butt;stroke-linejoin:miter;stroke-miterlimit:10.43299961;stroke-dasharray:none;stroke-dashoffset:0;stroke-opacity:1"><path
           id="path1380"
           d="m 480.79,424.7 -0.06,0.31 -0.07,0.32 -0.07,0.31 -0.09,0.3 -0.1,0.31 -0.1,0.3 -0.12,0.29 -0.13,0.29 -0.13,0.28 -0.15,0.28 -0.16,0.27 -0.17,0.26 -0.18,0.25 -0.19,0.25 -0.2,0.24 -0.21,0.22 -0.23,0.22 -0.23,0.21 -0.25,0.19 -0.25,0.19 -0.27,0.17 -0.28,0.16 -0.29,0.15 -0.3,0.14 -0.31,0.12 -0.32,0.1 -0.34,0.09 -0.35,0.08 -0.36,0.06 -0.37,0.04 -0.38,0.03 -0.39,0.01 v -1.21 c 5.95,0 6.06,-6.11 6.06,-7.2 0,-3.92 -3.5,-16.2 -11.89,-16.2 v 0 c -6,0 -6,5.62 -6,6.17 0,1.47 1.36,9.11 3.59,12.37 2.19,3.11 4.86,4.86 8.24,4.86 v 1.21 c -3.33,0 -6.88,-0.88 -11.13,-5.13 -4.53,-4.53 -4.9,-9.61 -4.9,-11.3 0,-3.39 2.39,-9.71 10.03,-9.71 12.98,0 18.65,18.32 18.65,26.14 0,8.67 -5.06,14.12 -11.78,14.12 -7.9,0 -10.42,-7.09 -10.42,-8.62 0,-0.75 0.44,-1.91 2.08,-1.91 1.8,0 2.94,1.64 2.94,2.89 0,1.91 -1.69,1.91 -2.57,1.91 2.41,4.04 6.29,4.37 7.86,4.37 3.99,0 7.8,-2.84 7.8,-9.87 0,-2.13 -0.31,-4.91 -1.47,-9.33 z"
           inkscape:connector-curvature="0"
           style="fill:#000000;stroke-width:0" /><path
           id="path1382"
           d="m 526.06,418.92 0.01,0.02 0.01,0.03 0.03,0.05 0.02,0.06 0.02,0.05 0.03,0.06 0.02,0.05 0.02,0.06 0.02,0.05 0.01,0.03 0.01,0.02 0.01,0.03 0.01,0.02 0.01,0.03 0.01,0.02 0.01,0.02 0.01,0.02 v 0.02 l 0.01,0.02 v 0.02 l 0.01,0.02 v 0.01 0.01 0.02 0.01 c 0,0.06 0,0.61 -0.65,0.61 -0.5,0 -0.61,-0.33 -0.72,-0.66 -3.55,-8.08 -5.56,-11.73 -14.89,-11.73 h -7.97 c -0.77,0 -0.88,0 -1.2,0.06 -0.53,0.05 -0.71,0.11 -0.71,0.55 0,0.15 0,0.26 0.28,1.25 l 3.71,14.89 h 5.4 c 4.63,0 4.63,-1.14 4.63,-2.5 0,-0.39 0,-1.05 -0.38,-2.68 -0.11,-0.28 -0.15,-0.43 -0.15,-0.6 0,-0.27 0.22,-0.6 0.7,-0.6 0.44,0 0.59,0.27 0.81,1.1 l 3.11,12.76 c 0,0.33 -0.26,0.59 -0.65,0.59 -0.49,0 -0.6,-0.32 -0.75,-0.98 -1.16,-4.14 -2.14,-5.41 -7.16,-5.41 h -5.13 l 3.27,13.16 c 0.5,1.91 0.55,2.13 2.95,2.13 h 7.69 c 6.66,0 8.3,-1.58 8.3,-6.05 0,-1.31 0,-1.42 -0.22,-2.89 0,-0.33 -0.05,-0.72 -0.05,-0.99 0,-0.28 0.16,-0.65 0.66,-0.65 0.59,0 0.64,0.33 0.75,1.36 l 1.09,9.43 c 0.17,1.47 -0.11,1.47 -1.47,1.47 h -27.54 c -1.1,0 -1.64,0 -1.64,-1.08 0,-0.6 0.48,-0.6 1.53,-0.6 2.01,0 3.54,0 3.54,-0.99 0,-0.22 0,-0.33 -0.28,-1.3 L 496,410.45 c -0.55,-2.13 -0.66,-2.56 -4.97,-2.56 -0.92,0 -1.51,0 -1.51,-1.03 0,-0.66 0.48,-0.66 1.51,-0.66 h 28.33 c 1.25,0 1.3,0.05 1.69,0.92 z"
           inkscape:connector-curvature="0"
           style="fill:#000000;stroke-width:0" /><path
           id="path1384"
           d="m 548.94,393.11 v 0.02 0.03 l -0.01,0.02 v 0.01 0.02 l -0.01,0.02 v 0.02 l -0.01,0.01 -0.01,0.03 -0.01,0.02 -0.01,0.02 -0.02,0.03 -0.02,0.02 -0.02,0.03 -0.02,0.04 -0.03,0.03 -0.03,0.04 -0.03,0.04 -0.02,0.02 -0.02,0.02 -0.02,0.02 -0.02,0.03 -0.02,0.02 -0.02,0.02 -0.02,0.03 -0.03,0.03 -0.02,0.02 -0.03,0.03 -0.03,0.03 -0.03,0.03 -0.02,0.03 -0.04,0.04 -0.03,0.03 -0.03,0.03 -0.03,0.04 -0.04,0.04 -0.04,0.03 -0.03,0.04 -0.04,0.04 -0.04,0.04 -0.05,0.05 -0.04,0.04 c -6.81,6.87 -8.56,17.19 -8.56,25.53 0,9.5 2.08,18.98 8.78,25.81 0.72,0.64 0.72,0.75 0.72,0.92 0,0.38 -0.22,0.55 -0.55,0.55 -0.55,0 -5.45,-3.72 -8.67,-10.64 -2.78,-6 -3.44,-12.06 -3.44,-16.64 0,-4.25 0.6,-10.86 3.6,-17.02 3.28,-6.71 7.96,-10.26 8.51,-10.26 0.33,0 0.55,0.17 0.55,0.55 z"
           inkscape:connector-curvature="0"
           style="fill:#000000;stroke-width:0" /><path
           id="path1386"
           d="m 554.57,399.54 -0.04,-0.17 -0.04,-0.16 -0.04,-0.15 -0.04,-0.15 -0.03,-0.13 -0.04,-0.13 -0.04,-0.13 -0.04,-0.11 -0.04,-0.11 -0.05,-0.1 -0.04,-0.09 -0.05,-0.09 -0.06,-0.08 -0.06,-0.08 -0.06,-0.07 -0.07,-0.06 -0.07,-0.06 -0.08,-0.05 -0.09,-0.05 -0.1,-0.04 -0.1,-0.04 -0.11,-0.04 -0.12,-0.03 -0.12,-0.02 -0.14,-0.03 -0.15,-0.01 -0.08,-0.01 -0.08,-0.01 -0.08,-0.01 h -0.09 l -0.08,-0.01 h -0.1 -0.09 l -0.1,-0.01 h -0.1 -0.1 -0.11 -0.11 c -0.66,0 -1.27,0 -1.27,-1.05 0,-0.42 0.29,-0.64 0.72,-0.64 1.47,0 3.05,0.16 4.58,0.16 1.8,0 3.66,-0.16 5.41,-0.16 0.26,0 0.98,0 0.98,1.08 0,0.61 -0.55,0.61 -1.31,0.61 -2.74,0 -2.74,0.37 -2.74,0.87 0,0.66 2.3,9.55 2.68,10.91 0.72,-1.58 2.23,-3.48 5.01,-3.48 l -0.04,1.18 c -3.6,0 -4.32,4.53 -4.32,4.86 0,0.11 0,0.22 0.17,0.88 l 2.68,10.68 c 0.37,1.49 1.84,3 2.82,3.83 1.91,1.69 3.5,2.08 4.43,2.08 2.18,0 3.5,-1.92 3.5,-5.14 0,-3.22 -1.82,-9.48 -2.8,-11.56 -1.85,-3.81 -4.47,-5.63 -6.48,-5.63 l 0.04,-1.18 c 6.33,0 13.16,7.95 13.16,15.98 0,5.12 -3.11,8.72 -7.25,8.72 -2.74,0 -5.36,-1.95 -7.16,-4.1 -0.54,2.96 -2.89,4.1 -4.91,4.1 -2.51,0 -3.54,-2.13 -4.04,-3.11 -0.97,-1.84 -1.69,-5.13 -1.69,-5.28 0,-0.55 0.55,-0.55 0.66,-0.55 0.54,0 0.61,0.05 0.94,1.25 0.92,3.88 2.01,6.5 3.96,6.5 0.94,0 1.71,-0.44 1.71,-2.51 0,-1.25 -0.17,-1.86 -0.39,-2.79 z"
           inkscape:connector-curvature="0"
           style="fill:#000000;stroke-width:0" /><path
           id="path1388"
           d="m 590.85,406.18 0.06,0.06 0.07,0.06 0.08,0.06 0.08,0.07 0.08,0.08 0.09,0.07 0.09,0.08 0.09,0.08 0.1,0.08 0.1,0.08 0.21,0.17 0.21,0.18 0.22,0.18 0.21,0.17 0.22,0.18 0.2,0.17 0.11,0.08 0.09,0.08 0.1,0.08 0.09,0.07 0.09,0.08 0.08,0.06 0.08,0.07 0.07,0.06 0.07,0.06 0.06,0.06 c 2.47,2.28 4.83,4.47 4.83,8.09 0,4.75 -4,7.83 -8.98,7.83 -4.78,0 -7.94,-3.64 -7.94,-7.19 0,-1.95 1.56,-2.23 2.13,-2.23 0.82,0 2.06,0.59 2.06,2.11 0,2.08 -1.99,2.08 -2.47,2.08 1.16,2.92 3.83,3.9 5.78,3.9 3.72,0 5.63,-3.14 5.63,-6.5 0,-4.14 -2.91,-7.17 -7.61,-12 l -5.03,-5.19 c -0.49,-0.43 -0.49,-0.51 -0.49,-1.51 h 15.77 l 1.15,7.14 h -1.23 c -0.13,-0.8 -0.45,-2.8 -0.92,-3.55 -0.24,-0.33 -3.27,-0.33 -3.91,-0.33 h -7.11 z"
           inkscape:connector-curvature="0"
           style="fill:#000000;stroke-width:0" /><path
           id="path1390"
           d="m 619,419.84 v 0.41 0.41 l -0.01,0.44 -0.02,0.44 -0.04,0.92 -0.07,0.97 -0.09,1 -0.11,1.04 -0.15,1.07 -0.18,1.09 -0.21,1.12 -0.25,1.14 -0.3,1.15 -0.33,1.16 -0.38,1.16 -0.43,1.17 -0.24,0.58 -0.25,0.59 -0.26,0.58 -0.27,0.58 c -3.28,6.71 -7.97,10.26 -8.51,10.26 -0.33,0 -0.55,-0.22 -0.55,-0.55 0,-0.17 0,-0.28 1.03,-1.25 5.36,-5.4 8.47,-14.07 8.47,-25.48 0,-9.33 -2.03,-18.94 -8.8,-25.81 -0.7,-0.66 -0.7,-0.77 -0.7,-0.92 0,-0.33 0.22,-0.55 0.55,-0.55 0.54,0 5.45,3.7 8.67,10.64 2.78,6 3.43,12.06 3.43,16.64 z"
           inkscape:connector-curvature="0"
           style="fill:#000000;stroke-width:0" /></g>    </g>
    <g
       id="g1461"
       transform="translate(-55.792575,119.0625)">
      <g
         word-spacing="normal"
         letter-spacing="normal"
         font-size-adjust="none"
         font-stretch="normal"
         font-weight="normal"
         font-variant="normal"
         font-style="normal"
         stroke-miterlimit="10.433"
         xml:space="preserve"
         transform="matrix(0.3,0,0,-0.3,-52.5,222.75)"
         id="g1459"
         style="font-style:normal;font-variant:normal;font-weight:normal;font-stretch:normal;letter-spacing:normal;word-spacing:normal;text-anchor:start;fill:none;fill-opacity:1;fill-rule:evenodd;stroke:#000000;stroke-linecap:butt;stroke-linejoin:miter;stroke-miterlimit:10.43299961;stroke-dasharray:none;stroke-dashoffset:0;stroke-opacity:1"><path
           id="path1447"
           d="m 480.79,424.7 -0.06,0.31 -0.07,0.32 -0.07,0.31 -0.09,0.3 -0.1,0.31 -0.1,0.3 -0.12,0.29 -0.13,0.29 -0.13,0.28 -0.15,0.28 -0.16,0.27 -0.17,0.26 -0.18,0.25 -0.19,0.25 -0.2,0.24 -0.21,0.22 -0.23,0.22 -0.23,0.21 -0.25,0.19 -0.25,0.19 -0.27,0.17 -0.28,0.16 -0.29,0.15 -0.3,0.14 -0.31,0.12 -0.32,0.1 -0.34,0.09 -0.35,0.08 -0.36,0.06 -0.37,0.04 -0.38,0.03 -0.39,0.01 v -1.21 c 5.95,0 6.06,-6.11 6.06,-7.2 0,-3.92 -3.5,-16.2 -11.89,-16.2 v 0 c -6,0 -6,5.62 -6,6.17 0,1.47 1.36,9.11 3.59,12.37 2.19,3.11 4.86,4.86 8.24,4.86 v 1.21 c -3.33,0 -6.88,-0.88 -11.13,-5.13 -4.53,-4.53 -4.9,-9.61 -4.9,-11.3 0,-3.39 2.39,-9.71 10.03,-9.71 12.98,0 18.65,18.32 18.65,26.14 0,8.67 -5.06,14.12 -11.78,14.12 -7.9,0 -10.42,-7.09 -10.42,-8.62 0,-0.75 0.44,-1.91 2.08,-1.91 1.8,0 2.94,1.64 2.94,2.89 0,1.91 -1.69,1.91 -2.57,1.91 2.41,4.04 6.29,4.37 7.86,4.37 3.99,0 7.8,-2.84 7.8,-9.87 0,-2.13 -0.31,-4.91 -1.47,-9.33 z"
           inkscape:connector-curvature="0"
           style="fill:#000000;stroke-width:0" /><path
           id="path1449"
           d="m 526.06,418.92 0.01,0.02 0.01,0.03 0.03,0.05 0.02,0.06 0.02,0.05 0.03,0.06 0.02,0.05 0.02,0.06 0.02,0.05 0.01,0.03 0.01,0.02 0.01,0.03 0.01,0.02 0.01,0.03 0.01,0.02 0.01,0.02 0.01,0.02 v 0.02 l 0.01,0.02 v 0.02 l 0.01,0.02 v 0.01 0.01 0.02 0.01 c 0,0.06 0,0.61 -0.65,0.61 -0.5,0 -0.61,-0.33 -0.72,-0.66 -3.55,-8.08 -5.56,-11.73 -14.89,-11.73 h -7.97 c -0.77,0 -0.88,0 -1.2,0.06 -0.53,0.05 -0.71,0.11 -0.71,0.55 0,0.15 0,0.26 0.28,1.25 l 3.71,14.89 h 5.4 c 4.63,0 4.63,-1.14 4.63,-2.5 0,-0.39 0,-1.05 -0.38,-2.68 -0.11,-0.28 -0.15,-0.43 -0.15,-0.6 0,-0.27 0.22,-0.6 0.7,-0.6 0.44,0 0.59,0.27 0.81,1.1 l 3.11,12.76 c 0,0.33 -0.26,0.59 -0.65,0.59 -0.49,0 -0.6,-0.32 -0.75,-0.98 -1.16,-4.14 -2.14,-5.41 -7.16,-5.41 h -5.13 l 3.27,13.16 c 0.5,1.91 0.55,2.13 2.95,2.13 h 7.69 c 6.66,0 8.3,-1.58 8.3,-6.05 0,-1.31 0,-1.42 -0.22,-2.89 0,-0.33 -0.05,-0.72 -0.05,-0.99 0,-0.28 0.16,-0.65 0.66,-0.65 0.59,0 0.64,0.33 0.75,1.36 l 1.09,9.43 c 0.17,1.47 -0.11,1.47 -1.47,1.47 h -27.54 c -1.1,0 -1.64,0 -1.64,-1.08 0,-0.6 0.48,-0.6 1.53,-0.6 2.01,0 3.54,0 3.54,-0.99 0,-0.22 0,-0.33 -0.28,-1.3 L 496,410.45 c -0.55,-2.13 -0.66,-2.56 -4.97,-2.56 -0.92,0 -1.51,0 -1.51,-1.03 0,-0.66 0.48,-0.66 1.51,-0.66 h 28.33 c 1.25,0 1.3,0.05 1.69,0.92 z"
           inkscape:connector-curvature="0"
           style="fill:#000000;stroke-width:0" /><path
           id="path1451"
           d="m 548.94,393.11 v 0.02 0.03 l -0.01,0.02 v 0.01 0.02 l -0.01,0.02 v 0.02 l -0.01,0.01 -0.01,0.03 -0.01,0.02 -0.01,0.02 -0.02,0.03 -0.02,0.02 -0.02,0.03 -0.02,0.04 -0.03,0.03 -0.03,0.04 -0.03,0.04 -0.02,0.02 -0.02,0.02 -0.02,0.02 -0.02,0.03 -0.02,0.02 -0.02,0.02 -0.02,0.03 -0.03,0.03 -0.02,0.02 -0.03,0.03 -0.03,0.03 -0.03,0.03 -0.02,0.03 -0.04,0.04 -0.03,0.03 -0.03,0.03 -0.03,0.04 -0.04,0.04 -0.04,0.03 -0.03,0.04 -0.04,0.04 -0.04,0.04 -0.05,0.05 -0.04,0.04 c -6.81,6.87 -8.56,17.19 -8.56,25.53 0,9.5 2.08,18.98 8.78,25.81 0.72,0.64 0.72,0.75 0.72,0.92 0,0.38 -0.22,0.55 -0.55,0.55 -0.55,0 -5.45,-3.72 -8.67,-10.64 -2.78,-6 -3.44,-12.06 -3.44,-16.64 0,-4.25 0.6,-10.86 3.6,-17.02 3.28,-6.71 7.96,-10.26 8.51,-10.26 0.33,0 0.55,0.17 0.55,0.55 z"
           inkscape:connector-curvature="0"
           style="fill:#000000;stroke-width:0" /><path
           id="path1453"
           d="m 554.57,399.54 -0.04,-0.17 -0.04,-0.16 -0.04,-0.15 -0.04,-0.15 -0.03,-0.13 -0.04,-0.13 -0.04,-0.13 -0.04,-0.11 -0.04,-0.11 -0.05,-0.1 -0.04,-0.09 -0.05,-0.09 -0.06,-0.08 -0.06,-0.08 -0.06,-0.07 -0.07,-0.06 -0.07,-0.06 -0.08,-0.05 -0.09,-0.05 -0.1,-0.04 -0.1,-0.04 -0.11,-0.04 -0.12,-0.03 -0.12,-0.02 -0.14,-0.03 -0.15,-0.01 -0.08,-0.01 -0.08,-0.01 -0.08,-0.01 h -0.09 l -0.08,-0.01 h -0.1 -0.09 l -0.1,-0.01 h -0.1 -0.1 -0.11 -0.11 c -0.66,0 -1.27,0 -1.27,-1.05 0,-0.42 0.29,-0.64 0.72,-0.64 1.47,0 3.05,0.16 4.58,0.16 1.8,0 3.66,-0.16 5.41,-0.16 0.26,0 0.98,0 0.98,1.08 0,0.61 -0.55,0.61 -1.31,0.61 -2.74,0 -2.74,0.37 -2.74,0.87 0,0.66 2.3,9.55 2.68,10.91 0.72,-1.58 2.23,-3.48 5.01,-3.48 l -0.04,1.18 c -3.6,0 -4.32,4.53 -4.32,4.86 0,0.11 0,0.22 0.17,0.88 l 2.68,10.68 c 0.37,1.49 1.84,3 2.82,3.83 1.91,1.69 3.5,2.08 4.43,2.08 2.18,0 3.5,-1.92 3.5,-5.14 0,-3.22 -1.82,-9.48 -2.8,-11.56 -1.85,-3.81 -4.47,-5.63 -6.48,-5.63 l 0.04,-1.18 c 6.33,0 13.16,7.95 13.16,15.98 0,5.12 -3.11,8.72 -7.25,8.72 -2.74,0 -5.36,-1.95 -7.16,-4.1 -0.54,2.96 -2.89,4.1 -4.91,4.1 -2.51,0 -3.54,-2.13 -4.04,-3.11 -0.97,-1.84 -1.69,-5.13 -1.69,-5.28 0,-0.55 0.55,-0.55 0.66,-0.55 0.54,0 0.61,0.05 0.94,1.25 0.92,3.88 2.01,6.5 3.96,6.5 0.94,0 1.71,-0.44 1.71,-2.51 0,-1.25 -0.17,-1.86 -0.39,-2.79 z"
           inkscape:connector-curvature="0"
           style="fill:#000000;stroke-width:0" /><path
           id="path1455"
           d="m 589.7,411.37 0.29,-0.01 0.28,-0.02 0.28,-0.03 0.27,-0.05 0.27,-0.06 0.25,-0.07 0.25,-0.09 0.24,-0.1 0.23,-0.11 0.23,-0.13 0.21,-0.13 0.21,-0.16 0.2,-0.16 0.19,-0.17 0.18,-0.19 0.17,-0.2 0.16,-0.22 0.15,-0.22 0.15,-0.24 0.13,-0.25 0.13,-0.26 0.11,-0.27 0.1,-0.28 0.1,-0.3 0.08,-0.31 0.07,-0.32 0.06,-0.33 0.05,-0.34 0.04,-0.35 0.03,-0.37 0.02,-0.38 0.01,-0.38 c 0,-5 -2.83,-6.47 -4.94,-6.47 -2.2,0 -5.19,0.8 -6.6,2.9 1.44,0 2.44,0.93 2.44,2.24 0,1.28 -0.92,2.2 -2.19,2.2 -1.07,0 -2.2,-0.69 -2.2,-2.28 0,-3.78 4.08,-6.26 8.63,-6.26 5.29,0 9.01,3.67 9.01,7.67 0,3.29 -2.64,6.33 -6.7,7.22 3.14,1.11 5.5,3.82 5.5,7.01 0,3.19 -3.59,5.47 -7.74,5.47 -4.26,0 -7.5,-2.31 -7.5,-5.34 0,-1.49 1,-2.13 2.04,-2.13 1.23,0 2.03,0.88 2.03,2.03 0,1.49 -1.27,2.05 -2.16,2.08 1.69,2.2 4.75,2.31 5.47,2.31 1.05,0 4.08,-0.31 4.08,-4.42 0,-2.8 -1.16,-4.47 -1.72,-5.11 -1.2,-1.23 -2.13,-1.31 -4.55,-1.47 -0.76,-0.04 -1.08,-0.07 -1.08,-0.61 0,-0.54 0.36,-0.54 1.04,-0.54 z"
           inkscape:connector-curvature="0"
           style="fill:#000000;stroke-width:0" /><path
           id="path1457"
           d="m 619,419.84 v 0.41 0.41 l -0.01,0.44 -0.02,0.44 -0.04,0.92 -0.07,0.97 -0.09,1 -0.11,1.04 -0.15,1.07 -0.18,1.09 -0.21,1.12 -0.25,1.14 -0.3,1.15 -0.33,1.16 -0.38,1.16 -0.43,1.17 -0.24,0.58 -0.25,0.59 -0.26,0.58 -0.27,0.58 c -3.28,6.71 -7.97,10.26 -8.51,10.26 -0.33,0 -0.55,-0.22 -0.55,-0.55 0,-0.17 0,-0.28 1.03,-1.25 5.36,-5.4 8.47,-14.07 8.47,-25.48 0,-9.33 -2.03,-18.94 -8.8,-25.81 -0.7,-0.66 -0.7,-0.77 -0.7,-0.92 0,-0.33 0.22,-0.55 0.55,-0.55 0.54,0 5.45,3.7 8.67,10.64 2.78,6 3.43,12.06 3.43,16.64 z"
           inkscape:connector-curvature="0"
           style="fill:#000000;stroke-width:0" /></g>    </g>
    <g
       id="g1511"
       transform="translate(-136.96501,-99.885957)">
      <ellipse
         id="ellipse1050-6-9"
         style="opacity:1;fill:none;fill-opacity:1;stroke:#000000;stroke-width:1.18799996;stroke-linecap:butt;stroke-linejoin:miter;stroke-miterlimit:4;stroke-dasharray:none;stroke-dashoffset:0;stroke-opacity:1;paint-order:stroke markers fill"
         cx="331.87952"
         cy="332.66122"
         rx="101.25"
         ry="67.5" />
      <circle
         r="3.3750002"
         cy="332.66122"
         cx="331.87952"
         id="path1207-6-1"
         style="opacity:1;fill:#b3b3b3;fill-opacity:1;stroke:#000000;stroke-width:1.68750012;stroke-linecap:butt;stroke-linejoin:miter;stroke-miterlimit:4;stroke-dasharray:none;stroke-dashoffset:0;stroke-opacity:1;paint-order:stroke markers fill" />
    </g>
    <g
       id="g3273"
       transform="translate(116.76177,123.66395)">
      <g
         word-spacing="normal"
         letter-spacing="normal"
         font-size-adjust="none"
         font-stretch="normal"
         font-weight="normal"
         font-variant="normal"
         font-style="normal"
         stroke-miterlimit="10.433"
         xml:space="preserve"
         transform="matrix(0.3,0,0,-0.3,-52.5,222.75)"
         id="g3271"
         style="font-style:normal;font-variant:normal;font-weight:normal;font-stretch:normal;letter-spacing:normal;word-spacing:normal;text-anchor:start;fill:none;fill-opacity:1;fill-rule:evenodd;stroke:#000000;stroke-linecap:butt;stroke-linejoin:miter;stroke-miterlimit:10.43299961;stroke-dasharray:none;stroke-dashoffset:0;stroke-opacity:1"><path
           id="path3269"
           d="m 480.18,429.71 v 0.03 l -0.01,0.02 v 0.02 0.02 l -0.01,0.02 v 0.03 l -0.01,0.02 v 0.02 l -0.01,0.03 -0.01,0.02 -0.01,0.02 -0.01,0.02 -0.02,0.03 -0.01,0.02 -0.01,0.02 -0.02,0.02 -0.02,0.02 -0.02,0.02 -0.02,0.02 -0.02,0.02 -0.02,0.01 -0.02,0.02 -0.03,0.01 -0.02,0.02 -0.03,0.01 -0.03,0.01 -0.02,0.01 -0.04,0.01 h -0.03 l -0.03,0.01 h -0.04 -0.01 -0.02 c -0.59,0 -2.78,-2.19 -3.7,-3.76 -1.21,2.93 -3.33,3.81 -5.08,3.81 v -1.19 c 3.54,0 4.31,-4.42 4.31,-4.81 0,-0.33 -3,-12.27 -3.16,-12.49 -0.82,-1.53 -3.87,-5.03 -6.93,-5.03 v 0 c -3.27,0 -3.49,4.21 -3.49,5.14 0,2.61 1.58,8.57 2.5,10.85 1.69,4.04 4.53,6.34 6.77,6.34 v 1.19 c -6.44,0 -13.14,-8.06 -13.14,-15.99 0,-5.34 3.22,-8.71 7.2,-8.71 2.34,0 4.47,1.29 6.44,3.26 -0.5,-1.91 -2.3,-9.28 -2.47,-9.76 -0.42,-1.54 -0.86,-1.75 -3.92,-1.8 -0.71,0 -1.25,0 -1.25,-1.1 0,-0.04 0,-0.59 0.7,-0.59 1.75,0 3.66,0.16 5.45,0.16 1.86,0 3.83,-0.16 5.63,-0.16 0.26,0 0.98,0 0.98,1.08 0,0.61 -0.54,0.61 -1.42,0.61 -2.62,0 -2.62,0.37 -2.62,0.87 0,0.38 0.11,0.71 0.21,1.21 z"
           inkscape:connector-curvature="0"
           style="fill:#000000;stroke-width:0" /></g>    </g>
    <g
       id="g3347"
       transform="translate(48.315217,58.668477)">
      <g
         word-spacing="normal"
         letter-spacing="normal"
         font-size-adjust="none"
         font-stretch="normal"
         font-weight="normal"
         font-variant="normal"
         font-style="normal"
         stroke-miterlimit="10.433"
         xml:space="preserve"
         transform="matrix(0.3,0,0,-0.3,-52.5,222.75)"
         id="g3345"
         style="font-style:normal;font-variant:normal;font-weight:normal;font-stretch:normal;letter-spacing:normal;word-spacing:normal;text-anchor:start;fill:none;fill-opacity:1;fill-rule:evenodd;stroke:#000000;stroke-linecap:butt;stroke-linejoin:miter;stroke-miterlimit:10.43299961;stroke-dasharray:none;stroke-dashoffset:0;stroke-opacity:1"><path
           id="path3335"
           d="m 480.79,424.7 -0.06,0.31 -0.07,0.32 -0.07,0.31 -0.09,0.3 -0.1,0.31 -0.1,0.3 -0.12,0.29 -0.13,0.29 -0.13,0.28 -0.15,0.28 -0.16,0.27 -0.17,0.26 -0.18,0.25 -0.19,0.25 -0.2,0.24 -0.21,0.22 -0.23,0.22 -0.23,0.21 -0.25,0.19 -0.25,0.19 -0.27,0.17 -0.28,0.16 -0.29,0.15 -0.3,0.14 -0.31,0.12 -0.32,0.1 -0.34,0.09 -0.35,0.08 -0.36,0.06 -0.37,0.04 -0.38,0.03 -0.39,0.01 v -1.21 c 5.95,0 6.06,-6.11 6.06,-7.2 0,-3.92 -3.5,-16.2 -11.89,-16.2 v 0 c -6,0 -6,5.62 -6,6.17 0,1.47 1.36,9.11 3.59,12.37 2.19,3.11 4.86,4.86 8.24,4.86 v 1.21 c -3.33,0 -6.88,-0.88 -11.13,-5.13 -4.53,-4.53 -4.9,-9.61 -4.9,-11.3 0,-3.39 2.39,-9.71 10.03,-9.71 12.98,0 18.65,18.32 18.65,26.14 0,8.67 -5.06,14.12 -11.78,14.12 -7.9,0 -10.42,-7.09 -10.42,-8.62 0,-0.75 0.44,-1.91 2.08,-1.91 1.8,0 2.94,1.64 2.94,2.89 0,1.91 -1.69,1.91 -2.57,1.91 2.41,4.04 6.29,4.37 7.86,4.37 3.99,0 7.8,-2.84 7.8,-9.87 0,-2.13 -0.31,-4.91 -1.47,-9.33 z"
           inkscape:connector-curvature="0"
           style="fill:#000000;stroke-width:0" /><path
           id="path3337"
           d="m 526.06,418.92 0.01,0.02 0.01,0.03 0.03,0.05 0.02,0.06 0.02,0.05 0.03,0.06 0.02,0.05 0.02,0.06 0.02,0.05 0.01,0.03 0.01,0.02 0.01,0.03 0.01,0.02 0.01,0.03 0.01,0.02 0.01,0.02 0.01,0.02 v 0.02 l 0.01,0.02 v 0.02 l 0.01,0.02 v 0.01 0.01 0.02 0.01 c 0,0.06 0,0.61 -0.65,0.61 -0.5,0 -0.61,-0.33 -0.72,-0.66 -3.55,-8.08 -5.56,-11.73 -14.89,-11.73 h -7.97 c -0.77,0 -0.88,0 -1.2,0.06 -0.53,0.05 -0.71,0.11 -0.71,0.55 0,0.15 0,0.26 0.28,1.25 l 3.71,14.89 h 5.4 c 4.63,0 4.63,-1.14 4.63,-2.5 0,-0.39 0,-1.05 -0.38,-2.68 -0.11,-0.28 -0.15,-0.43 -0.15,-0.6 0,-0.27 0.22,-0.6 0.7,-0.6 0.44,0 0.59,0.27 0.81,1.1 l 3.11,12.76 c 0,0.33 -0.26,0.59 -0.65,0.59 -0.49,0 -0.6,-0.32 -0.75,-0.98 -1.16,-4.14 -2.14,-5.41 -7.16,-5.41 h -5.13 l 3.27,13.16 c 0.5,1.91 0.55,2.13 2.95,2.13 h 7.69 c 6.66,0 8.3,-1.58 8.3,-6.05 0,-1.31 0,-1.42 -0.22,-2.89 0,-0.33 -0.05,-0.72 -0.05,-0.99 0,-0.28 0.16,-0.65 0.66,-0.65 0.59,0 0.64,0.33 0.75,1.36 l 1.09,9.43 c 0.17,1.47 -0.11,1.47 -1.47,1.47 h -27.54 c -1.1,0 -1.64,0 -1.64,-1.08 0,-0.6 0.48,-0.6 1.53,-0.6 2.01,0 3.54,0 3.54,-0.99 0,-0.22 0,-0.33 -0.28,-1.3 L 496,410.45 c -0.55,-2.13 -0.66,-2.56 -4.97,-2.56 -0.92,0 -1.51,0 -1.51,-1.03 0,-0.66 0.48,-0.66 1.51,-0.66 h 28.33 c 1.25,0 1.3,0.05 1.69,0.92 z"
           inkscape:connector-curvature="0"
           style="fill:#000000;stroke-width:0" /><path
           id="path3339"
           d="m 548.94,393.11 v 0.02 0.03 l -0.01,0.02 v 0.01 0.02 l -0.01,0.02 v 0.02 l -0.01,0.01 -0.01,0.03 -0.01,0.02 -0.01,0.02 -0.02,0.03 -0.02,0.02 -0.02,0.03 -0.02,0.04 -0.03,0.03 -0.03,0.04 -0.03,0.04 -0.02,0.02 -0.02,0.02 -0.02,0.02 -0.02,0.03 -0.02,0.02 -0.02,0.02 -0.02,0.03 -0.03,0.03 -0.02,0.02 -0.03,0.03 -0.03,0.03 -0.03,0.03 -0.02,0.03 -0.04,0.04 -0.03,0.03 -0.03,0.03 -0.03,0.04 -0.04,0.04 -0.04,0.03 -0.03,0.04 -0.04,0.04 -0.04,0.04 -0.05,0.05 -0.04,0.04 c -6.81,6.87 -8.56,17.19 -8.56,25.53 0,9.5 2.08,18.98 8.78,25.81 0.72,0.64 0.72,0.75 0.72,0.92 0,0.38 -0.22,0.55 -0.55,0.55 -0.55,0 -5.45,-3.72 -8.67,-10.64 -2.78,-6 -3.44,-12.06 -3.44,-16.64 0,-4.25 0.6,-10.86 3.6,-17.02 3.28,-6.71 7.96,-10.26 8.51,-10.26 0.33,0 0.55,0.17 0.55,0.55 z"
           inkscape:connector-curvature="0"
           style="fill:#000000;stroke-width:0" /><path
           id="path3341"
           d="m 576.77,429.71 v 0.03 0.02 0.02 l -0.01,0.02 v 0.02 l -0.01,0.03 v 0.02 l -0.01,0.02 -0.01,0.03 -0.01,0.02 -0.01,0.02 -0.01,0.02 -0.01,0.03 -0.02,0.02 -0.01,0.02 -0.02,0.02 -0.01,0.02 -0.02,0.02 -0.02,0.02 -0.02,0.02 -0.02,0.01 -0.03,0.02 -0.02,0.01 -0.03,0.02 -0.02,0.01 -0.03,0.01 -0.03,0.01 -0.03,0.01 h -0.03 l -0.04,0.01 h -0.03 -0.02 -0.02 c -0.59,0 -2.78,-2.19 -3.7,-3.76 -1.2,2.93 -3.33,3.81 -5.08,3.81 v -1.19 c 3.55,0 4.31,-4.42 4.31,-4.81 0,-0.33 -3,-12.27 -3.15,-12.49 -0.83,-1.53 -3.88,-5.03 -6.94,-5.03 v 0 c -3.26,0 -3.48,4.21 -3.48,5.14 0,2.61 1.57,8.57 2.5,10.85 1.68,4.04 4.53,6.34 6.76,6.34 v 1.19 c -6.44,0 -13.14,-8.06 -13.14,-15.99 0,-5.34 3.22,-8.71 7.2,-8.71 2.35,0 4.47,1.29 6.44,3.26 -0.5,-1.91 -2.29,-9.28 -2.47,-9.76 -0.42,-1.54 -0.86,-1.75 -3.92,-1.8 -0.7,0 -1.25,0 -1.25,-1.1 0,-0.04 0,-0.59 0.7,-0.59 1.75,0 3.66,0.16 5.46,0.16 1.86,0 3.82,-0.16 5.62,-0.16 0.27,0 0.99,0 0.99,1.08 0,0.61 -0.55,0.61 -1.42,0.61 -2.63,0 -2.63,0.37 -2.63,0.87 0,0.38 0.11,0.71 0.22,1.21 z"
           inkscape:connector-curvature="0"
           style="fill:#000000;stroke-width:0" /><path
           id="path3343"
           d="m 594.16,419.84 -0.01,0.41 v 0.41 l -0.01,0.44 -0.02,0.44 -0.04,0.92 -0.06,0.97 -0.09,1 -0.12,1.04 -0.15,1.07 -0.18,1.09 -0.21,1.12 -0.25,1.14 -0.29,1.15 -0.34,1.16 -0.38,1.16 -0.43,1.17 -0.24,0.58 -0.24,0.59 -0.26,0.58 -0.28,0.58 c -3.28,6.71 -7.97,10.26 -8.51,10.26 -0.33,0 -0.55,-0.22 -0.55,-0.55 0,-0.17 0,-0.28 1.03,-1.25 5.36,-5.4 8.47,-14.07 8.47,-25.48 0,-9.33 -2.03,-18.94 -8.8,-25.81 -0.7,-0.66 -0.7,-0.77 -0.7,-0.92 0,-0.33 0.22,-0.55 0.55,-0.55 0.54,0 5.45,3.7 8.67,10.64 2.78,6 3.44,12.06 3.44,16.64 z"
           inkscape:connector-curvature="0"
           style="fill:#000000;stroke-width:0" /></g>    </g>
  </g>
</svg>
